<svg width="150" height="150" viewBox="0 0 150 150" fill="none" xmlns="http://www.w3.org/2000/svg">
<circle cx="75" cy="75" r="75" fill="#339AF0"/>
<path d="M75 114.764C74.4736 114.767 73.9519 114.662 73.4646 114.455C72.9773 114.248 72.5341 113.942 72.1604 113.557L41.0845 81.1708C37.1865 77.0713 35 71.5366 35 65.7689C35 60.0012 37.1865 54.4665 41.0845 50.3669C45.0131 46.2896 50.3346 44 55.8826 44C61.4305 44 66.7521 46.2896 70.6806 50.3669L75 54.8626L79.3194 50.3669C83.2479 46.2896 88.5695 44 94.1174 44C99.6654 44 104.987 46.2896 108.915 50.3669C112.813 54.4665 115 60.0012 115 65.7689C115 71.5366 112.813 77.0713 108.915 81.1708L77.8396 113.557C77.4659 113.942 77.0227 114.248 76.5354 114.455C76.0481 114.662 75.5264 114.767 75 114.764Z" fill="#D10000"/>
</svg>
