<svg width="150" height="161" viewBox="0 0 150 161" fill="none" xmlns="http://www.w3.org/2000/svg">
<rect y="12" width="150" height="143" rx="30" fill="#54b2f7"/>
<path d="M102.788 38.571C105.024 38.571 106.83 39.345 108.206 40.893C109.582 42.355 110.27 44.204 110.27 46.44V93.138C110.27 100.276 108.722 106.597 105.626 112.101C102.616 117.605 98.445 121.905 93.113 125.001C87.781 128.097 81.589 129.645 74.537 129.645C67.485 129.645 61.25 128.097 55.832 125.001C50.5 121.905 46.286 117.605 43.19 112.101C40.18 106.597 38.675 100.276 38.675 93.138V46.44C38.675 44.204 39.449 42.355 40.997 40.893C42.545 39.345 44.523 38.571 46.931 38.571C48.909 38.571 50.672 39.345 52.22 40.893C53.854 42.355 54.671 44.204 54.671 46.44V93.138C54.671 97.438 55.574 101.179 57.38 104.361C59.272 107.457 61.723 109.865 64.733 111.585C67.829 113.305 71.097 114.165 74.537 114.165C78.235 114.165 81.675 113.305 84.857 111.585C88.039 109.865 90.619 107.457 92.597 104.361C94.575 101.179 95.564 97.438 95.564 93.138V46.44C95.564 44.204 96.209 42.355 97.499 40.893C98.789 39.345 100.552 38.571 102.788 38.571Z" fill="#1A1919"/>
<path d="M108.206 40.893L107.085 41.8895L107.099 41.9055L107.114 41.921L108.206 40.893ZM105.626 112.101L104.319 111.366L104.314 111.373L104.31 111.381L105.626 112.101ZM93.113 125.001L92.3598 123.704L92.3598 123.704L93.113 125.001ZM55.832 125.001L55.0788 126.298L55.0878 126.303L55.832 125.001ZM43.19 112.101L41.8739 112.821L41.8782 112.829L41.8826 112.836L43.19 112.101ZM40.997 40.893L42.0269 41.9835L42.0425 41.9688L42.0577 41.9537L40.997 40.893ZM52.22 40.893L51.1593 41.9537L51.1888 41.9831L51.2198 42.0109L52.22 40.893ZM57.38 104.361L56.0755 105.101L56.0874 105.122L56.1001 105.143L57.38 104.361ZM64.733 111.585L63.9888 112.887L63.9966 112.892L64.0045 112.896L64.733 111.585ZM84.857 111.585L84.1437 110.265L84.1437 110.265L84.857 111.585ZM92.597 104.361L93.861 105.169L93.866 105.161L93.8709 105.153L92.597 104.361ZM97.499 40.893L98.6238 41.8854L98.6378 41.8695L98.6513 41.8533L97.499 40.893ZM102.788 40.071C104.634 40.071 106.018 40.6894 107.085 41.8895L109.327 39.8965C107.642 38.0006 105.414 37.071 102.788 37.071V40.071ZM107.114 41.921C108.197 43.0723 108.77 44.539 108.77 46.44H111.77C111.77 43.869 110.967 41.6377 109.298 39.8649L107.114 41.921ZM108.77 46.44V93.138H111.77V46.44H108.77ZM108.77 93.138C108.77 100.053 107.273 106.114 104.319 111.366L106.933 112.836C110.171 107.08 111.77 100.499 111.77 93.138H108.77ZM104.31 111.381C101.429 116.649 97.4507 120.748 92.3598 123.704L93.8662 126.298C99.4393 123.062 103.803 118.561 106.942 112.821L104.31 111.381ZM92.3598 123.704C87.2878 126.649 81.3631 128.145 74.537 128.145V131.145C81.8149 131.145 88.2742 129.545 93.8662 126.298L92.3598 123.704ZM74.537 128.145C67.7115 128.145 61.7393 126.649 56.5762 123.699L55.0878 126.303C60.7607 129.545 67.2585 131.145 74.537 131.145V128.145ZM56.5852 123.704C51.4906 120.746 47.4654 116.642 44.4974 111.366L41.8826 112.836C45.1066 118.568 49.5094 123.064 55.0788 126.298L56.5852 123.704ZM44.5061 111.381C41.6325 106.127 40.175 100.06 40.175 93.138H37.175C37.175 100.492 38.7275 107.067 41.8739 112.821L44.5061 111.381ZM40.175 93.138V46.44H37.175V93.138H40.175ZM40.175 46.44C40.175 44.5935 40.7955 43.1466 42.0269 41.9835L39.9671 39.8025C38.1025 41.5634 37.175 43.8145 37.175 46.44H40.175ZM42.0577 41.9537C43.2949 40.7164 44.8771 40.071 46.931 40.071V37.071C44.1689 37.071 41.7951 37.9736 39.9363 39.8323L42.0577 41.9537ZM46.931 40.071C48.4669 40.071 49.8597 40.654 51.1593 41.9537L53.2807 39.8323C51.4843 38.036 49.3511 37.071 46.931 37.071V40.071ZM51.2198 42.0109C52.5287 43.1819 53.171 44.6211 53.171 46.44H56.171C56.171 43.7869 55.1794 41.5281 53.2202 39.7751L51.2198 42.0109ZM53.171 46.44V93.138H56.171V46.44H53.171ZM53.171 93.138C53.171 97.6518 54.1205 101.657 56.0755 105.101L58.6845 103.621C57.0275 100.701 56.171 97.2242 56.171 93.138H53.171ZM56.1001 105.143C58.1176 108.445 60.7489 111.036 63.9888 112.887L65.4772 110.283C62.6971 108.694 60.4264 106.469 58.6599 103.579L56.1001 105.143ZM64.0045 112.896C67.3165 114.736 70.8343 115.665 74.537 115.665V112.665C71.3597 112.665 68.3415 111.874 65.4615 110.274L64.0045 112.896ZM74.537 115.665C78.4783 115.665 82.1641 114.746 85.5703 112.905L84.1437 110.265C81.1859 111.864 77.9918 112.665 74.537 112.665V115.665ZM85.5703 112.905C88.98 111.061 91.7482 108.476 93.861 105.169L91.333 103.553C89.4898 106.438 87.098 108.669 84.1437 110.265L85.5703 112.905ZM93.8709 105.153C96.0175 101.7 97.064 97.6757 97.064 93.138H94.064C94.064 97.2003 93.1325 100.658 91.3231 103.569L93.8709 105.153ZM97.064 93.138V46.44H94.064V93.138H97.064ZM97.064 46.44C97.064 44.5123 97.6109 43.0334 98.6238 41.8854L96.3742 39.9006C94.8071 41.6766 94.064 43.8957 94.064 46.44H97.064ZM98.6513 41.8533C99.6228 40.6875 100.942 40.071 102.788 40.071V37.071C100.162 37.071 97.9552 38.0025 96.3467 39.9327L98.6513 41.8533Z" fill="#191919"/>
<path d="M100.138 121.102L105.325 126.001C107.017 127.6 109.724 127.368 111.12 125.506C111.372 125.171 111.568 124.797 111.7 124.4L115 114.5L116.473 107.133C116.491 107.045 116.5 106.955 116.5 106.864C116.5 106.626 116.438 106.391 116.319 106.184L115.492 104.736C114.842 103.598 113.91 102.646 112.786 101.971L112.521 101.812C110.581 100.649 108.269 100.274 106.061 100.764C105.356 100.921 104.673 101.163 104.028 101.486L103.779 101.611C103.26 101.87 102.763 102.169 102.292 102.506L101.053 103.391C100.029 104.122 99.1658 105.057 98.5182 106.136C98.1738 106.71 97.8932 107.32 97.6815 107.955L97.3078 109.076C97.1029 109.691 96.9465 110.321 96.84 110.96L96.8033 111.18C96.6025 112.385 96.6025 113.615 96.8033 114.82C96.934 115.604 97.1514 116.378 97.4468 117.117C97.812 118.03 98.2989 118.899 98.889 119.685L98.9737 119.798C99.3239 120.265 99.7134 120.701 100.138 121.102Z" fill="#339AF0" stroke="#339AF0"/>
<path d="M119.238 138.148C118.973 138.15 118.709 138.097 118.463 137.992C118.217 137.888 117.993 137.733 117.804 137.539L102.11 121.183C100.141 119.112 99.037 116.317 99.037 113.404C99.037 110.491 100.141 107.696 102.11 105.626C104.094 103.567 106.782 102.41 109.583 102.41C112.385 102.41 115.073 103.567 117.057 105.626L119.238 107.896L121.42 105.626C123.404 103.567 126.091 102.41 128.893 102.41C131.695 102.41 134.383 103.567 136.367 105.626C138.335 107.696 139.44 110.491 139.44 113.404C139.44 116.317 138.335 119.112 136.367 121.183L120.672 137.539C120.484 137.733 120.26 137.888 120.014 137.992C119.768 138.097 119.504 138.15 119.238 138.148Z" fill="#E00505"/>
</svg>
